<svg xmlns="http://www.w3.org/2000/svg" viewBox="0 0 1440 900" font-family="Inter, Segoe UI, system-ui, sans-serif">
  <!-- Palette:
       bg:#0A1220 surface:#141D2E raised:#1E2940 border:#2A3550
       accent:#4ADE80 accentLight:#86EFAC accentBg:#1F3A2E
       textPrimary:#E8EDF3 textSecondary:#8B95A5 textMuted:#4A5568 -->

  <!-- Window background -->
  <rect width="1440" height="900" fill="#0A1220"/>

  <!-- ============ TITLE BAR ============ -->
  <rect x="0" y="0" width="1440" height="40" fill="#141D2E"/>
  <line x1="0" y1="40" x2="1440" y2="40" stroke="#2A3550" stroke-width="1"/>

  <!-- App logo mark -->
  <rect x="16" y="12" width="16" height="16" rx="3" fill="#4ADE80"/>
  <rect x="20" y="16" width="8" height="8" rx="1" fill="#0A1220"/>
  <text x="42" y="25" font-size="13" font-weight="600" fill="#E8EDF3" letter-spacing="0.5">OMBUTO CODE</text>
  <text x="146" y="25" font-size="12" fill="#8B95A5">— DropSync Workbench</text>

  <!-- Window controls -->
  <g>
    <rect x="1368" y="12" width="16" height="16" fill="none"/>
    <line x1="1372" y1="22" x2="1380" y2="22" stroke="#8B95A5" stroke-width="1.5"/>
    <rect x="1394" y="12" width="16" height="16" fill="none"/>
    <rect x="1397" y="15" width="10" height="10" fill="none" stroke="#8B95A5" stroke-width="1.5"/>
    <rect x="1420" y="12" width="16" height="16" fill="none"/>
    <line x1="1423" y1="15" x2="1433" y2="25" stroke="#8B95A5" stroke-width="1.5"/>
    <line x1="1433" y1="15" x2="1423" y2="25" stroke="#8B95A5" stroke-width="1.5"/>
  </g>

  <!-- ============ LEFT SIDEBAR ============ -->
  <rect x="0" y="40" width="240" height="836" fill="#141D2E"/>
  <line x1="240" y1="40" x2="240" y2="876" stroke="#2A3550" stroke-width="1"/>

  <!-- Sidebar section label -->
  <text x="24" y="76" font-size="11" font-weight="600" fill="#4A5568" letter-spacing="1.5">WORKSPACE</text>

  <!-- Nav: Jobs (active) -->
  <rect x="12" y="92" width="216" height="40" rx="6" fill="#1F3A2E"/>
  <rect x="12" y="92" width="3" height="40" rx="1.5" fill="#4ADE80"/>
  <g transform="translate(28, 104)">
    <rect x="0" y="2" width="16" height="12" rx="1.5" fill="none" stroke="#4ADE80" stroke-width="1.5"/>
    <line x1="4" y1="0" x2="12" y2="0" stroke="#4ADE80" stroke-width="1.5"/>
  </g>
  <text x="56" y="117" font-size="13" font-weight="500" fill="#E8EDF3">Jobs</text>
  <rect x="188" y="106" width="28" height="18" rx="9" fill="#4ADE80"/>
  <text x="202" y="119" font-size="11" font-weight="600" fill="#0A1220" text-anchor="middle">12</text>

  <!-- Nav: Logs -->
  <g>
    <rect x="12" y="140" width="216" height="40" rx="6" fill="none"/>
    <g transform="translate(28, 152)">
      <line x1="0" y1="2" x2="16" y2="2" stroke="#8B95A5" stroke-width="1.5"/>
      <line x1="0" y1="8" x2="12" y2="8" stroke="#8B95A5" stroke-width="1.5"/>
      <line x1="0" y1="14" x2="16" y2="14" stroke="#8B95A5" stroke-width="1.5"/>
    </g>
    <text x="56" y="165" font-size="13" font-weight="500" fill="#8B95A5">Logs</text>
  </g>

  <!-- Nav: Schedules -->
  <g>
    <rect x="12" y="188" width="216" height="40" rx="6" fill="none"/>
    <g transform="translate(28, 200)">
      <circle cx="8" cy="8" r="7" fill="none" stroke="#8B95A5" stroke-width="1.5"/>
      <line x1="8" y1="8" x2="8" y2="4" stroke="#8B95A5" stroke-width="1.5"/>
      <line x1="8" y1="8" x2="11" y2="10" stroke="#8B95A5" stroke-width="1.5"/>
    </g>
    <text x="56" y="213" font-size="13" font-weight="500" fill="#8B95A5">Schedules</text>
  </g>

  <!-- Nav: Sources -->
  <g>
    <rect x="12" y="236" width="216" height="40" rx="6" fill="none"/>
    <g transform="translate(28, 248)">
      <path d="M 0 4 L 0 14 L 16 14 L 16 6 L 9 6 L 7 4 Z" fill="none" stroke="#8B95A5" stroke-width="1.5" stroke-linejoin="round"/>
    </g>
    <text x="56" y="261" font-size="13" font-weight="500" fill="#8B95A5">Sources</text>
  </g>

  <!-- Section divider -->
  <line x1="24" y1="304" x2="216" y2="304" stroke="#2A3550" stroke-width="1"/>

  <text x="24" y="332" font-size="11" font-weight="600" fill="#4A5568" letter-spacing="1.5">SYSTEM</text>

  <!-- Nav: Settings -->
  <g>
    <rect x="12" y="348" width="216" height="40" rx="6" fill="none"/>
    <g transform="translate(28, 360)">
      <circle cx="8" cy="8" r="3" fill="none" stroke="#8B95A5" stroke-width="1.5"/>
      <circle cx="8" cy="8" r="7" fill="none" stroke="#8B95A5" stroke-width="1.5"/>
    </g>
    <text x="56" y="373" font-size="13" font-weight="500" fill="#8B95A5">Settings</text>
  </g>

  <!-- Nav: Help -->
  <g>
    <rect x="12" y="396" width="216" height="40" rx="6" fill="none"/>
    <g transform="translate(28, 408)">
      <circle cx="8" cy="8" r="7" fill="none" stroke="#8B95A5" stroke-width="1.5"/>
      <text x="8" y="12" font-size="10" font-weight="700" fill="#8B95A5" text-anchor="middle">?</text>
    </g>
    <text x="56" y="421" font-size="13" font-weight="500" fill="#8B95A5">Help</text>
  </g>

  <!-- Bottom user card -->
  <rect x="12" y="812" width="216" height="52" rx="6" fill="#1E2940"/>
  <circle cx="32" cy="838" r="14" fill="#2A3550"/>
  <text x="32" y="842" font-size="11" font-weight="600" fill="#E8EDF3" text-anchor="middle">FB</text>
  <text x="56" y="834" font-size="12" font-weight="500" fill="#E8EDF3">Francois Botha</text>
  <text x="56" y="848" font-size="11" fill="#8B95A5">Workspace owner</text>

  <!-- ============ MAIN CONTENT ============ -->

  <!-- Page header -->
  <text x="272" y="88" font-size="24" font-weight="700" fill="#E8EDF3">Jobs</text>
  <text x="272" y="112" font-size="13" fill="#8B95A5">Active and recent sync jobs across your workspace</text>

  <!-- Search box -->
  <rect x="272" y="138" width="320" height="38" rx="6" fill="#141D2E" stroke="#2A3550" stroke-width="1"/>
  <g transform="translate(288, 152)">
    <circle cx="6" cy="6" r="5" fill="none" stroke="#8B95A5" stroke-width="1.5"/>
    <line x1="10" y1="10" x2="14" y2="14" stroke="#8B95A5" stroke-width="1.5"/>
  </g>
  <text x="312" y="162" font-size="13" fill="#4A5568">Search jobs, sources, destinations…</text>

  <!-- Filter chips -->
  <g>
    <rect x="608" y="138" width="72" height="38" rx="6" fill="#1E2940" stroke="#2A3550" stroke-width="1"/>
    <text x="644" y="162" font-size="12" font-weight="500" fill="#E8EDF3" text-anchor="middle">All · 12</text>
  </g>
  <g>
    <rect x="692" y="138" width="86" height="38" rx="6" fill="none" stroke="#2A3550" stroke-width="1"/>
    <circle cx="708" y="157" r="4" fill="#4ADE80"/>
    <circle cx="708" cy="157" r="4" fill="#4ADE80"/>
    <text x="742" y="162" font-size="12" fill="#8B95A5" text-anchor="middle">Running</text>
  </g>
  <g>
    <rect x="790" y="138" width="82" height="38" rx="6" fill="none" stroke="#2A3550" stroke-width="1"/>
    <text x="831" y="162" font-size="12" fill="#8B95A5" text-anchor="middle">Failed</text>
  </g>
  <g>
    <rect x="884" y="138" width="82" height="38" rx="6" fill="none" stroke="#2A3550" stroke-width="1"/>
    <text x="925" y="162" font-size="12" fill="#8B95A5" text-anchor="middle">Paused</text>
  </g>

  <!-- Primary action button -->
  <rect x="1296" y="138" width="128" height="38" rx="6" fill="#4ADE80"/>
  <text x="1315" y="162" font-size="13" font-weight="600" fill="#0A1220">+ New Job</text>

  <!-- ============ STATS ROW ============ -->
  <g transform="translate(272, 200)">
    <!-- Card 1 -->
    <rect x="0" y="0" width="276" height="96" rx="8" fill="#141D2E" stroke="#2A3550" stroke-width="1"/>
    <text x="20" y="30" font-size="11" font-weight="600" fill="#8B95A5" letter-spacing="1">ACTIVE JOBS</text>
    <text x="20" y="66" font-size="32" font-weight="700" fill="#E8EDF3">4</text>
    <text x="64" y="66" font-size="13" fill="#4ADE80">↑ 2 today</text>
    <rect x="20" y="76" width="236" height="4" rx="2" fill="#1E2940"/>
    <rect x="20" y="76" width="88" height="4" rx="2" fill="#4ADE80"/>

    <!-- Card 2 -->
    <rect x="292" y="0" width="276" height="96" rx="8" fill="#141D2E" stroke="#2A3550" stroke-width="1"/>
    <text x="312" y="30" font-size="11" font-weight="600" fill="#8B95A5" letter-spacing="1">TRANSFERRED (24H)</text>
    <text x="312" y="66" font-size="32" font-weight="700" fill="#E8EDF3">128.4</text>
    <text x="402" y="66" font-size="14" font-weight="500" fill="#8B95A5">GB</text>
    <text x="432" y="66" font-size="13" fill="#4ADE80">↑ 12%</text>

    <!-- Card 3 -->
    <rect x="584" y="0" width="276" height="96" rx="8" fill="#141D2E" stroke="#2A3550" stroke-width="1"/>
    <text x="604" y="30" font-size="11" font-weight="600" fill="#8B95A5" letter-spacing="1">SUCCESS RATE</text>
    <text x="604" y="66" font-size="32" font-weight="700" fill="#E8EDF3">98.7%</text>
    <text x="710" y="66" font-size="13" fill="#8B95A5">last 30 days</text>

    <!-- Card 4 -->
    <rect x="876" y="0" width="276" height="96" rx="8" fill="#141D2E" stroke="#2A3550" stroke-width="1"/>
    <text x="896" y="30" font-size="11" font-weight="600" fill="#8B95A5" letter-spacing="1">FAILED</text>
    <text x="896" y="66" font-size="32" font-weight="700" fill="#E8EDF3">1</text>
    <circle cx="925" cy="56" r="5" fill="#86EFAC" opacity="0.3"/>
    <circle cx="925" cy="56" r="3" fill="#86EFAC"/>
    <text x="940" y="66" font-size="13" fill="#8B95A5">needs attention</text>
  </g>

  <!-- ============ JOBS TABLE ============ -->
  <rect x="272" y="320" width="1152" height="500" rx="8" fill="#141D2E" stroke="#2A3550" stroke-width="1"/>

  <!-- Table header -->
  <rect x="272" y="320" width="1152" height="48" rx="8" fill="#1E2940"/>
  <rect x="272" y="360" width="1152" height="8" fill="#1E2940"/>
  <line x1="272" y1="368" x2="1424" y2="368" stroke="#2A3550" stroke-width="1"/>

  <text x="296" y="350" font-size="11" font-weight="600" fill="#8B95A5" letter-spacing="1">JOB NAME</text>
  <text x="640" y="350" font-size="11" font-weight="600" fill="#8B95A5" letter-spacing="1">SOURCE → DESTINATION</text>
  <text x="960" y="350" font-size="11" font-weight="600" fill="#8B95A5" letter-spacing="1">STATUS</text>
  <text x="1108" y="350" font-size="11" font-weight="600" fill="#8B95A5" letter-spacing="1">PROGRESS</text>
  <text x="1312" y="350" font-size="11" font-weight="600" fill="#8B95A5" letter-spacing="1">LAST RUN</text>

  <!-- Row 1 (running) -->
  <g transform="translate(272, 380)">
    <rect x="24" y="10" width="32" height="32" rx="6" fill="#1F3A2E"/>
    <g transform="translate(32, 18)">
      <rect x="0" y="2" width="16" height="12" rx="1.5" fill="none" stroke="#4ADE80" stroke-width="1.5"/>
      <line x1="4" y1="0" x2="12" y2="0" stroke="#4ADE80" stroke-width="1.5"/>
    </g>
    <text x="68" y="26" font-size="13" font-weight="600" fill="#E8EDF3">Creative Archive Nightly</text>
    <text x="68" y="44" font-size="11" fill="#8B95A5">#job-0041 · every day at 02:00</text>

    <text x="368" y="26" font-size="12" fill="#E8EDF3">D:\Work\Creative</text>
    <text x="368" y="44" font-size="12" fill="#8B95A5">→ dropbox:/archive/creative</text>

    <circle cx="696" cy="31" r="4" fill="#4ADE80"/>
    <circle cx="696" cy="31" r="7" fill="none" stroke="#4ADE80" stroke-width="1" opacity="0.4"/>
    <text x="712" y="35" font-size="12" font-weight="500" fill="#4ADE80">Running</text>

    <rect x="836" y="26" width="200" height="6" rx="3" fill="#1E2940"/>
    <rect x="836" y="26" width="142" height="6" rx="3" fill="#4ADE80"/>
    <text x="1044" y="32" font-size="11" font-weight="500" fill="#E8EDF3">71%</text>

    <text x="1104" y="30" font-size="12" fill="#E8EDF3">2 min ago</text>
    <text x="1104" y="46" font-size="11" fill="#8B95A5">ETA 4 min</text>
  </g>
  <line x1="272" y1="436" x2="1424" y2="436" stroke="#2A3550" stroke-width="1"/>

  <!-- Row 2 (running) -->
  <g transform="translate(272, 436)">
    <rect x="24" y="10" width="32" height="32" rx="6" fill="#1F3A2E"/>
    <g transform="translate(32, 18)">
      <rect x="0" y="2" width="16" height="12" rx="1.5" fill="none" stroke="#4ADE80" stroke-width="1.5"/>
      <line x1="4" y1="0" x2="12" y2="0" stroke="#4ADE80" stroke-width="1.5"/>
    </g>
    <text x="68" y="26" font-size="13" font-weight="600" fill="#E8EDF3">Photos 2026 Incremental</text>
    <text x="68" y="44" font-size="11" fill="#8B95A5">#job-0038 · on change</text>

    <text x="368" y="26" font-size="12" fill="#E8EDF3">E:\Photos\2026</text>
    <text x="368" y="44" font-size="12" fill="#8B95A5">→ dropbox:/photos/2026</text>

    <circle cx="696" cy="31" r="4" fill="#4ADE80"/>
    <circle cx="696" cy="31" r="7" fill="none" stroke="#4ADE80" stroke-width="1" opacity="0.4"/>
    <text x="712" y="35" font-size="12" font-weight="500" fill="#4ADE80">Running</text>

    <rect x="836" y="26" width="200" height="6" rx="3" fill="#1E2940"/>
    <rect x="836" y="26" width="58" height="6" rx="3" fill="#4ADE80"/>
    <text x="1044" y="32" font-size="11" font-weight="500" fill="#E8EDF3">29%</text>

    <text x="1104" y="30" font-size="12" fill="#E8EDF3">just now</text>
    <text x="1104" y="46" font-size="11" fill="#8B95A5">ETA 18 min</text>
  </g>
  <line x1="272" y1="492" x2="1424" y2="492" stroke="#2A3550" stroke-width="1"/>

  <!-- Row 3 (queued) -->
  <g transform="translate(272, 492)">
    <rect x="24" y="10" width="32" height="32" rx="6" fill="#1E2940"/>
    <g transform="translate(32, 18)">
      <circle cx="8" cy="8" r="7" fill="none" stroke="#8B95A5" stroke-width="1.5"/>
      <line x1="8" y1="8" x2="8" y2="4" stroke="#8B95A5" stroke-width="1.5"/>
      <line x1="8" y1="8" x2="11" y2="10" stroke="#8B95A5" stroke-width="1.5"/>
    </g>
    <text x="68" y="26" font-size="13" font-weight="600" fill="#E8EDF3">Client Deliverables</text>
    <text x="68" y="44" font-size="11" fill="#8B95A5">#job-0040 · manual</text>

    <text x="368" y="26" font-size="12" fill="#E8EDF3">D:\Deliverables\Acme</text>
    <text x="368" y="44" font-size="12" fill="#8B95A5">→ dropbox:/clients/acme</text>

    <circle cx="696" cy="31" r="4" fill="#8B95A5"/>
    <text x="712" y="35" font-size="12" font-weight="500" fill="#8B95A5">Queued</text>

    <rect x="836" y="26" width="200" height="6" rx="3" fill="#1E2940"/>
    <text x="1044" y="32" font-size="11" font-weight="500" fill="#4A5568">—</text>

    <text x="1104" y="30" font-size="12" fill="#E8EDF3">yesterday</text>
    <text x="1104" y="46" font-size="11" fill="#8B95A5">14:22</text>
  </g>
  <line x1="272" y1="548" x2="1424" y2="548" stroke="#2A3550" stroke-width="1"/>

  <!-- Row 4 (ok) -->
  <g transform="translate(272, 548)">
    <rect x="24" y="10" width="32" height="32" rx="6" fill="#1E2940"/>
    <g transform="translate(32, 18)">
      <path d="M 2 8 L 7 13 L 14 4" fill="none" stroke="#4ADE80" stroke-width="2" stroke-linecap="round" stroke-linejoin="round"/>
    </g>
    <text x="68" y="26" font-size="13" font-weight="600" fill="#E8EDF3">Documents Weekly</text>
    <text x="68" y="44" font-size="11" fill="#8B95A5">#job-0032 · every Sunday 23:00</text>

    <text x="368" y="26" font-size="12" fill="#E8EDF3">C:\Users\fb\Documents</text>
    <text x="368" y="44" font-size="12" fill="#8B95A5">→ dropbox:/backup/documents</text>

    <circle cx="696" cy="31" r="4" fill="#4ADE80"/>
    <text x="712" y="35" font-size="12" font-weight="500" fill="#8B95A5">Idle</text>

    <rect x="836" y="26" width="200" height="6" rx="3" fill="#1E2940"/>
    <rect x="836" y="26" width="200" height="6" rx="3" fill="#4ADE80" opacity="0.5"/>
    <text x="1044" y="32" font-size="11" font-weight="500" fill="#E8EDF3">100%</text>

    <text x="1104" y="30" font-size="12" fill="#E8EDF3">3 days ago</text>
    <text x="1104" y="46" font-size="11" fill="#8B95A5">4.1 GB transferred</text>
  </g>
  <line x1="272" y1="604" x2="1424" y2="604" stroke="#2A3550" stroke-width="1"/>

  <!-- Row 5 (failed) -->
  <g transform="translate(272, 604)">
    <rect x="24" y="10" width="32" height="32" rx="6" fill="#1E2940"/>
    <g transform="translate(32, 18)">
      <circle cx="8" cy="8" r="7" fill="none" stroke="#86EFAC" stroke-width="1.5"/>
      <line x1="8" y1="4" x2="8" y2="9" stroke="#86EFAC" stroke-width="1.5"/>
      <circle cx="8" cy="12" r="1" fill="#86EFAC"/>
    </g>
    <text x="68" y="26" font-size="13" font-weight="600" fill="#E8EDF3">Legacy Raw Footage</text>
    <text x="68" y="44" font-size="11" fill="#8B95A5">#job-0027 · every day 04:00</text>

    <text x="368" y="26" font-size="12" fill="#E8EDF3">F:\Media\Raw</text>
    <text x="368" y="44" font-size="12" fill="#8B95A5">→ dropbox:/archive/raw</text>

    <circle cx="696" cy="31" r="4" fill="#86EFAC"/>
    <text x="712" y="35" font-size="12" font-weight="500" fill="#86EFAC">Failed</text>

    <rect x="836" y="26" width="200" height="6" rx="3" fill="#1E2940"/>
    <rect x="836" y="26" width="94" height="6" rx="3" fill="#86EFAC" opacity="0.6"/>
    <text x="1044" y="32" font-size="11" font-weight="500" fill="#E8EDF3">47%</text>

    <text x="1104" y="30" font-size="12" fill="#E8EDF3">6 hours ago</text>
    <text x="1104" y="46" font-size="11" fill="#86EFAC">auth expired</text>
  </g>
  <line x1="272" y1="660" x2="1424" y2="660" stroke="#2A3550" stroke-width="1"/>

  <!-- Row 6 (paused) -->
  <g transform="translate(272, 660)">
    <rect x="24" y="10" width="32" height="32" rx="6" fill="#1E2940"/>
    <g transform="translate(32, 18)">
      <rect x="2" y="2" width="4" height="12" rx="1" fill="#8B95A5"/>
      <rect x="10" y="2" width="4" height="12" rx="1" fill="#8B95A5"/>
    </g>
    <text x="68" y="26" font-size="13" font-weight="600" fill="#E8EDF3">Invoices &amp; Contracts</text>
    <text x="68" y="44" font-size="11" fill="#8B95A5">#job-0022 · on change</text>

    <text x="368" y="26" font-size="12" fill="#E8EDF3">C:\Business\Finance</text>
    <text x="368" y="44" font-size="12" fill="#8B95A5">→ dropbox:/finance/2026</text>

    <circle cx="696" cy="31" r="4" fill="#8B95A5"/>
    <text x="712" y="35" font-size="12" font-weight="500" fill="#8B95A5">Paused</text>

    <rect x="836" y="26" width="200" height="6" rx="3" fill="#1E2940"/>
    <text x="1044" y="32" font-size="11" font-weight="500" fill="#4A5568">—</text>

    <text x="1104" y="30" font-size="12" fill="#E8EDF3">last week</text>
    <text x="1104" y="46" font-size="11" fill="#8B95A5">by Francois</text>
  </g>
  <line x1="272" y1="716" x2="1424" y2="716" stroke="#2A3550" stroke-width="1"/>

  <!-- Row 7 (ok) -->
  <g transform="translate(272, 716)">
    <rect x="24" y="10" width="32" height="32" rx="6" fill="#1E2940"/>
    <g transform="translate(32, 18)">
      <path d="M 2 8 L 7 13 L 14 4" fill="none" stroke="#4ADE80" stroke-width="2" stroke-linecap="round" stroke-linejoin="round"/>
    </g>
    <text x="68" y="26" font-size="13" font-weight="600" fill="#E8EDF3">Design System Snapshots</text>
    <text x="68" y="44" font-size="11" fill="#8B95A5">#job-0018 · every hour</text>

    <text x="368" y="26" font-size="12" fill="#E8EDF3">D:\Projects\DesignSystem</text>
    <text x="368" y="44" font-size="12" fill="#8B95A5">→ dropbox:/design/snapshots</text>

    <circle cx="696" cy="31" r="4" fill="#4ADE80"/>
    <text x="712" y="35" font-size="12" font-weight="500" fill="#8B95A5">Idle</text>

    <rect x="836" y="26" width="200" height="6" rx="3" fill="#1E2940"/>
    <rect x="836" y="26" width="200" height="6" rx="3" fill="#4ADE80" opacity="0.5"/>
    <text x="1044" y="32" font-size="11" font-weight="500" fill="#E8EDF3">100%</text>

    <text x="1104" y="30" font-size="12" fill="#E8EDF3">42 min ago</text>
    <text x="1104" y="46" font-size="11" fill="#8B95A5">18 files synced</text>
  </g>

  <!-- Table footer -->
  <rect x="272" y="772" width="1152" height="48" fill="#141D2E"/>
  <text x="296" y="802" font-size="12" fill="#8B95A5">Showing 7 of 12 jobs</text>
  <g>
    <rect x="1272" y="784" width="32" height="24" rx="4" fill="none" stroke="#2A3550" stroke-width="1"/>
    <text x="1288" y="800" font-size="11" fill="#8B95A5" text-anchor="middle">‹</text>
    <rect x="1308" y="784" width="32" height="24" rx="4" fill="#1F3A2E" stroke="#4ADE80" stroke-width="1"/>
    <text x="1324" y="800" font-size="11" font-weight="600" fill="#4ADE80" text-anchor="middle">1</text>
    <rect x="1344" y="784" width="32" height="24" rx="4" fill="none" stroke="#2A3550" stroke-width="1"/>
    <text x="1360" y="800" font-size="11" fill="#8B95A5" text-anchor="middle">2</text>
    <rect x="1380" y="784" width="32" height="24" rx="4" fill="none" stroke="#2A3550" stroke-width="1"/>
    <text x="1396" y="800" font-size="11" fill="#8B95A5" text-anchor="middle">›</text>
  </g>

  <!-- ============ STATUS BAR ============ -->
  <rect x="0" y="876" width="1440" height="24" fill="#141D2E"/>
  <line x1="0" y1="876" x2="1440" y2="876" stroke="#2A3550" stroke-width="1"/>

  <circle cx="16" cy="888" r="4" fill="#4ADE80"/>
  <text x="28" y="892" font-size="11" fill="#8B95A5">Connected · Dropbox API v2</text>

  <line x1="240" y1="880" x2="240" y2="896" stroke="#2A3550" stroke-width="1"/>
  <text x="256" y="892" font-size="11" fill="#8B95A5">2 jobs running · 164 MB/s</text>

  <line x1="440" y1="880" x2="440" y2="896" stroke="#2A3550" stroke-width="1"/>
  <text x="456" y="892" font-size="11" fill="#8B95A5">Last sync check: 14:02:18</text>

  <text x="1240" y="892" font-size="11" fill="#8B95A5">v0.4.2-dev</text>
  <line x1="1320" y1="880" x2="1320" y2="896" stroke="#2A3550" stroke-width="1"/>
  <circle cx="1336" cy="888" r="3" fill="#4ADE80"/>
  <text x="1346" y="892" font-size="11" fill="#8B95A5">IPC OK</text>
</svg>
